<svg width="200" height="48" viewBox="0 0 200 48" fill="none" xmlns="http://www.w3.org/2000/svg">
  <!-- Tree icon -->
  <g transform="translate(8, 8)">
    <path d="M8,7L8,26M8,10L12,10M8,18L12,18M8,26L12,26" style="fill:none;stroke:#64748b;stroke-width:2px;stroke-linecap:round;stroke-linejoin:round;"/>
    <g transform="matrix(0.5,0,0,0.833333,3,0.333333)">
      <path d="M16,3.8L16,6.2C16,7.193 14.656,8 13,8L7,8C5.344,8 4,7.193 4,6.2L4,3.8C4,2.807 5.344,2 7,2L13,2C14.656,2 16,2.807 16,3.8Z" style="fill:#64748b;"/>
    </g>
    <path d="M28,8.5L28,11.5C28,12.328 27.328,13 26.5,13L15.5,13C14.672,13 14,12.328 14,11.5L14,8.5C14,7.672 14.672,7 15.5,7L26.5,7C27.328,7 28,7.672 28,8.5Z" style="fill:#a855f7;"/>
    <path d="M28,16.5L28,19.5C28,20.328 27.328,21 26.5,21L15.5,21C14.672,21 14,20.328 14,19.5L14,16.5C14,15.672 14.672,15 15.5,15L26.5,15C27.328,15 28,15.672 28,16.5Z" style="fill:#22c55e;"/>
    <path d="M28,24.5L28,27.5C28,28.328 27.328,29 26.5,29L15.5,29C14.672,29 14,28.328 14,27.5L14,24.5C14,23.672 14.672,23 15.5,23L26.5,23C27.328,23 28,23.672 28,24.5Z" style="fill:#3b82f6;"/>
  </g>
  <!-- Text -->
  <text x="56" y="32" font-family="system-ui, -apple-system, sans-serif" font-size="24" font-weight="700" fill="#1e293b">Canopy</text>
</svg>
